<svg xmlns="http://www.w3.org/2000/svg" version="1.1" xmlns:xlink="http://www.w3.org/1999/xlink" xmlns:svgjs="http://svgjs.dev/svgjs" width="1500" height="935" viewBox="0 0 1500 935"><g transform="matrix(1,0,0,1,-0.9090909090909918,95.09283523494037)"><svg viewBox="0 0 396 247" data-background-color="#ffffff" preserveAspectRatio="xMidYMid meet" height="935" width="1500" xmlns="http://www.w3.org/2000/svg" xmlns:xlink="http://www.w3.org/1999/xlink"><g id="tight-bounds" transform="matrix(1,0,0,1,0.2400000000000091,-0.09999999999999432)"><svg viewBox="0 0 395.52 247.2" height="247.2" width="395.52"><g><svg></svg></g><g><svg viewBox="0 0 395.52 247.2" height="247.2" width="395.52"><g transform="matrix(1,0,0,1,75.54432,103.16058475159862)"><svg viewBox="0 0 244.43135999999998 40.87883049680275" height="40.87883049680275" width="244.43135999999998"><g><svg viewBox="0 0 244.43135999999998 40.87883049680275" height="40.87883049680275" width="244.43135999999998"><g><svg viewBox="0 0 244.43135999999998 40.87883049680275" height="40.87883049680275" width="244.43135999999998"><g><svg viewBox="0 0 244.43135999999998 40.87883049680275" height="40.87883049680275" width="244.43135999999998"><g id="textblocktransform"><svg viewBox="0 0 244.43135999999998 40.87883049680275" height="40.87883049680275" width="244.43135999999998" id="textblock"><g><svg viewBox="0 0 244.43135999999998 40.87883049680275" height="40.87883049680275" width="244.43135999999998"><g transform="matrix(1,0,0,1,0,0)"><svg width="244.43135999999998" viewBox="3.78 -33.13 254.1 42.510000000000005" height="40.87883049680275" data-palette-color="#4790fc"><path d="M17.05 0L6.6 0 6.6-3.43 16.65-3.43Q19.9-3.43 21.26-4.81 22.63-6.2 22.63-8.65L22.63-8.65 22.63-9.55Q22.63-12.05 21.24-13.43 19.85-14.8 16.4-14.8L16.4-14.8 6.63-14.8 6.63-18.07 16.35-18.07Q19.43-18.07 20.74-19.41 22.05-20.75 22.05-23.13L22.05-23.13 22.05-23.58Q22.05-25.93 20.79-27.24 19.53-28.55 16.32-28.55L16.32-28.55 6.53-28.55 6.53-31.95 16.7-31.95Q21.8-31.95 24-29.93 26.2-27.9 26.2-24.23L26.2-24.23 26.2-23.73Q26.2-20.8 24.8-19.13 23.4-17.45 20.45-17.13L20.45-17.13 20.43-16.98Q23.8-16.48 25.33-14.63 26.85-12.78 26.85-9.47L26.85-9.47 26.85-8.45Q26.85-4.48 24.55-2.24 22.25 0 17.05 0L17.05 0ZM7.88 0L3.78 0 3.78-31.95 7.88-31.95 7.88 0ZM50.85 0L46.82 0 47-5.93 46.85-6.55 46.85-14.33 46.87-15.75Q46.87-18.73 45.36-20.15 43.85-21.58 40.57-21.58L40.57-21.58Q37.95-21.58 35.76-20.83 33.57-20.08 31.87-19.07L31.87-19.07 32.25-22.53Q33.2-23.1 34.51-23.66 35.82-24.23 37.51-24.6 39.2-24.98 41.22-24.98L41.22-24.98Q43.85-24.98 45.69-24.34 47.52-23.7 48.66-22.5 49.8-21.3 50.32-19.6 50.85-17.9 50.85-15.8L50.85-15.8 50.85 0ZM38.42 0.53L38.42 0.53Q34.8 0.53 32.86-1.24 30.92-3 30.92-6.28L30.92-6.28 30.92-7Q30.92-10.38 33.01-12.04 35.1-13.7 39.65-14.35L39.65-14.35 47.37-15.45 47.6-12.5 40.15-11.43Q37.35-11.03 36.15-10.06 34.95-9.1 34.95-7.23L34.95-7.23 34.95-6.83Q34.95-4.9 36.13-3.88 37.32-2.85 39.7-2.85L39.7-2.85Q41.8-2.85 43.3-3.58 44.8-4.3 45.72-5.53 46.65-6.75 46.97-8.25L46.97-8.25 47.6-5.5 46.82-5.5Q46.47-3.9 45.51-2.53 44.55-1.15 42.82-0.31 41.1 0.53 38.42 0.53ZM60.9-14.93L60.9-14.93 59.97-18.05 60.97-18.1Q61.77-21.2 63.72-22.99 65.67-24.78 68.9-24.78L68.9-24.78Q69.7-24.78 70.33-24.65 70.97-24.53 71.47-24.35L71.47-24.35 71.72-20.43Q71.09-20.63 70.33-20.75 69.57-20.88 68.65-20.88L68.65-20.88Q65.9-20.88 63.86-19.35 61.82-17.82 60.9-14.93ZM61.1 0L57.05 0 57.05-24.4 61-24.4 60.8-17.2 61.1-16.9 61.1 0ZM79.54-14.93L79.54-14.93 78.62-18.05 79.62-18.1Q80.42-21.2 82.37-22.99 84.32-24.78 87.54-24.78L87.54-24.78Q88.34-24.78 88.98-24.65 89.62-24.53 90.12-24.35L90.12-24.35 90.37-20.43Q89.74-20.63 88.98-20.75 88.22-20.88 87.29-20.88L87.29-20.88Q84.54-20.88 82.51-19.35 80.47-17.82 79.54-14.93ZM79.74 0L75.69 0 75.69-24.4 79.64-24.4 79.44-17.2 79.74-16.9 79.74 0ZM102.99-3.78L105.32-3.78 103.19-2.85 110.49-24.4 114.67-24.4 103.19 8.6 99.09 8.6 102.94-2.55 104.72-1 100.12-1 92.14-24.4 96.34-24.4 102.99-3.78ZM141.76 0.58L141.76 0.58Q135.84 0.58 132.87-2.75 129.91-6.08 129.91-12.2L129.91-12.2 129.91-19.78Q129.91-25.9 132.86-29.21 135.81-32.52 141.71-32.52L141.71-32.52Q143.61-32.52 145.17-32.18 146.74-31.83 147.96-31.28 149.19-30.73 150.04-30.13L150.04-30.13 150.39-26.28Q148.91-27.33 146.92-28.11 144.94-28.9 142.26-28.9L142.26-28.9Q138.24-28.9 136.19-26.51 134.14-24.13 134.14-19.73L134.14-19.73 134.14-12.35Q134.14-7.98 136.21-5.56 138.29-3.15 142.41-3.15L142.41-3.15Q145.06-3.15 147.1-3.93 149.14-4.7 150.64-5.83L150.64-5.83 150.29-1.88Q149.44-1.28 148.19-0.7 146.94-0.13 145.32 0.23 143.71 0.58 141.76 0.58ZM176.36 0L172.31 0 172.31-15.18Q172.31-17.15 171.77-18.57 171.23-20 170.02-20.79 168.81-21.58 166.71-21.58L166.71-21.58Q164.78-21.58 163.38-20.85 161.98-20.13 161.12-18.89 160.26-17.65 159.91-16.07L159.91-16.07 159.01-18.95 160.06-18.95Q160.43-20.6 161.43-21.96 162.43-23.33 164.12-24.14 165.81-24.95 168.23-24.95L168.23-24.95Q171.13-24.95 172.92-23.85 174.71-22.75 175.53-20.69 176.36-18.63 176.36-15.63L176.36-15.63 176.36 0ZM160.03 0L155.98 0 155.98-33.13 160.01-33.13 160.01-25.18 159.88-18.18 160.03-17.85 160.03 0ZM182.33-24.4L186.36-24.4 186.36-9.22Q186.36-7.3 186.89-5.86 187.43-4.42 188.66-3.64 189.88-2.85 191.96-2.85L191.96-2.85Q193.91-2.85 195.31-3.56 196.71-4.28 197.59-5.53 198.48-6.78 198.81-8.35L198.81-8.35 199.53-5.48 198.66-5.48Q198.28-3.83 197.28-2.46 196.28-1.1 194.59-0.29 192.91 0.53 190.43 0.53L190.43 0.53Q187.56 0.53 185.77-0.56 183.98-1.65 183.16-3.74 182.33-5.83 182.33-8.78L182.33-8.78 182.33-24.4ZM198.63-24.4L202.68-24.4 202.68 0 198.63 0 198.81-5.85 198.63-6.1 198.63-24.4ZM229.65 0L225.6 0 225.6-15.18Q225.6-17.15 225.07-18.57 224.53-20 223.32-20.79 222.1-21.58 220-21.58L220-21.58Q218.08-21.58 216.67-20.85 215.25-20.13 214.38-18.89 213.5-17.65 213.15-16.07L213.15-16.07 212.43-18.95 213.3-18.95Q213.7-20.6 214.7-21.96 215.7-23.33 217.39-24.14 219.08-24.95 221.53-24.95L221.53-24.95Q224.43-24.95 226.22-23.85 228-22.75 228.83-20.69 229.65-18.63 229.65-15.63L229.65-15.63 229.65 0ZM213.33 0L209.28 0 209.28-24.4 213.33-24.4 213.15-18.55 213.33-18.32 213.33 0ZM245.43-7.3L245.43-7.3Q240.45-7.3 237.79-9.47 235.13-11.65 235.13-15.7L235.13-15.7 235.13-16.32Q235.13-18.85 236.16-20.73 237.2-22.6 239.48-23.66 241.75-24.73 245.43-24.83L245.43-24.83 257.88-25.23 257.88-22.03 250.53-22.28 250.5-22.1Q252.23-21.75 253.33-20.9 254.43-20.05 254.96-18.78 255.5-17.5 255.5-15.8L255.5-15.8 255.5-15.25Q255.5-11.38 252.95-9.34 250.4-7.3 245.43-7.3ZM245.25 6.15L245.25 6.15 245.83 6.15Q248.08 6.15 249.69 5.81 251.3 5.48 252.18 4.75 253.05 4.03 253.05 2.83L253.05 2.83 253.05 2.73Q253.05 1.33 252.04 0.59 251.03-0.15 248.58-0.38L248.58-0.38 241.68-1 242.83-1.05Q241.43-0.85 240.36-0.4 239.3 0.05 238.7 0.79 238.1 1.53 238.1 2.63L238.1 2.63 238.1 2.68Q238.1 3.95 238.98 4.73 239.85 5.5 241.45 5.83 243.05 6.15 245.25 6.15ZM245.75 9.38L245.03 9.38Q241.73 9.38 239.34 8.81 236.95 8.25 235.64 6.99 234.33 5.73 234.33 3.6L234.33 3.6 234.33 3.5Q234.33 2 235.04 1 235.75 0 236.96-0.58 238.18-1.15 239.68-1.35L239.68-1.35 239.65-1.5Q237.6-1.85 236.63-2.71 235.65-3.58 235.65-4.95L235.65-4.95 235.65-4.98Q235.65-5.93 236.09-6.6 236.53-7.28 237.41-7.68 238.3-8.08 239.68-8.18L239.68-8.18 239.68-8.68 244.33-7.5 242.43-7.55Q240.73-7.53 240.08-7.14 239.43-6.75 239.43-5.98L239.43-5.98 239.43-5.95Q239.43-5.13 240.35-4.7 241.28-4.28 243.5-4.03L243.5-4.03 249.43-3.43Q253.3-3.03 255.08-1.56 256.85-0.1 256.85 2.75L256.85 2.75 256.85 2.88Q256.85 5.15 255.5 6.6 254.15 8.05 251.68 8.71 249.2 9.38 245.75 9.38L245.75 9.38ZM245.38-10.3L245.38-10.3Q247.48-10.3 248.86-10.91 250.25-11.53 250.96-12.76 251.68-14 251.68-15.8L251.68-15.8 251.68-16.4Q251.68-18.15 250.99-19.38 250.3-20.6 248.93-21.24 247.55-21.88 245.48-21.88L245.48-21.88 245.33-21.88Q243.08-21.88 241.66-21.19 240.25-20.5 239.61-19.26 238.98-18.03 238.98-16.38L238.98-16.38 238.98-15.8Q238.98-14 239.69-12.78 240.4-11.55 241.83-10.93 243.25-10.3 245.38-10.3Z" opacity="1" transform="matrix(1,0,0,1,0,0)" fill="#4790fc" class="wordmark-text-0" data-fill-palette-color="primary" id="text-0"></path></svg></g></svg></g></svg></g></svg></g><g></g></svg></g></svg></g></svg></g><g><path d="M79.306 93.51A122.216 122.216 0 0 1 316.214 93.51L312.527 93.51A118.529 118.529 0 0 0 82.993 93.51L79.306 93.51M79.306 153.69A122.216 122.216 0 0 0 316.214 153.69L312.527 153.69A118.529 118.529 0 0 1 82.993 153.69L79.306 153.69" fill="#4790fc" stroke="transparent" data-fill-palette-color="tertiary"></path></g></svg></g><defs></defs></svg><rect width="395.52" height="247.2" fill="none" stroke="none" visibility="hidden"></rect></g></svg></g></svg>